<svg width="64" height="64" viewBox="0 0 64 64" fill="none" xmlns="http://www.w3.org/2000/svg">
<rect width="64" height="64" rx="32" fill="black"/>
<path fill-rule="evenodd" clip-rule="evenodd" d="M29.6378 29.7539C28.9731 29.2954 28.2182 28.9403 27.3911 28.7189C23.5867 27.7009 19.6939 29.8978 18.6962 33.626C17.6986 37.3541 19.9738 41.2017 23.7782 42.2197C24.6051 42.441 25.4362 42.5104 26.2409 42.4452C24.5436 41.3609 23.8458 38.3692 24.6861 35.2291C25.5265 32.0887 27.6256 29.8452 29.6378 29.7539Z" fill="white"/>
<path fill-rule="evenodd" clip-rule="evenodd" d="M30.0352 34.5509C29.5769 35.2154 29.2219 35.97 29.0006 36.7969C27.9826 40.6013 30.1796 44.4941 33.9077 45.4917C37.6359 46.4894 41.4834 44.2141 42.5015 40.4098C42.7228 39.5826 42.7922 38.7513 42.7269 37.9464C41.6429 39.6442 38.6508 40.3422 35.5104 39.5018C32.3703 38.6616 30.1269 36.5628 30.0352 34.5509Z" fill="white"/>
<path fill-rule="evenodd" clip-rule="evenodd" d="M34.9615 29.7979C35.4196 29.1336 35.7744 28.3792 35.9956 27.5526C37.0137 23.7482 34.8167 19.8554 31.0885 18.8577C27.3604 17.8601 23.5128 20.1353 22.4948 23.9397C22.2734 24.7671 22.204 25.5987 22.2694 26.4037C23.353 24.7055 26.3455 24.0071 29.4864 24.8476C32.6261 25.6878 34.8693 27.7862 34.9615 29.7979Z" fill="white"/>
<path fill-rule="evenodd" clip-rule="evenodd" d="M34.6161 33.8354C35.2806 34.2937 36.0352 34.6487 36.8621 34.87C40.6665 35.888 44.5592 33.691 45.5569 29.9629C46.5546 26.2347 44.2793 22.3872 40.475 21.3691C39.6478 21.1478 38.8165 21.0784 38.0116 21.1437C39.7094 22.2277 40.4074 25.2198 39.567 28.3602C38.7267 31.5003 36.628 33.7437 34.6161 33.8354Z" fill="white"/>
</svg>
